<mxfile host="Electron" agent="Mozilla/5.0 (Windows NT 10.0; Win64; x64) AppleWebKit/537.36 (KHTML, like Gecko) draw.io/24.7.8 Chrome/128.0.6613.36 Electron/32.0.1 Safari/537.36" version="24.7.8">
  <diagram name="第 1 页" id="X76UVdvACoVXdaGmegRU">
    <mxGraphModel dx="4685" dy="3942" grid="1" gridSize="10" guides="1" tooltips="1" connect="1" arrows="1" fold="1" page="1" pageScale="1" pageWidth="1169" pageHeight="1654" math="0" shadow="0">
      <root>
        <mxCell id="0" />
        <mxCell id="1" parent="0" />
        <mxCell id="s4B_sa_TWKeP-ez5lPC6-4" value="Text" style="text;html=1;align=center;verticalAlign=middle;whiteSpace=wrap;rounded=0;" parent="1" vertex="1">
          <mxGeometry x="334.42" y="210" width="60" height="30" as="geometry" />
        </mxCell>
        <mxCell id="s4B_sa_TWKeP-ez5lPC6-6" value="&lt;h1 style=&quot;margin-top: 0px;&quot;&gt;&lt;font face=&quot;Courier New&quot; style=&quot;font-size: 36px;&quot; color=&quot;#006600&quot;&gt;dm9051_udriver API export:&lt;/font&gt;&lt;/h1&gt;&lt;div&gt;&lt;h1 style=&quot;margin-top: 0px;&quot;&gt;&lt;font style=&quot;font-size: 36px;&quot; face=&quot;Courier New&quot; color=&quot;#006600&quot;&gt;[dm_eth_main]&lt;/font&gt;&lt;/h1&gt;&lt;/div&gt;&lt;div&gt;&lt;pre style=&quot;margin-top: 0px;&quot;&gt;&lt;font style=&quot;font-size: 24px;&quot; face=&quot;MyZD31g9KZF0GhwwbWez&quot;&gt;&lt;font color=&quot;#ff6666&quot;&gt;DM_ETH_Init (referred from .\objects\uip_ctask.o).&lt;br&gt;&lt;/font&gt;&lt;font color=&quot;#ff6666&quot;&gt;DM_ETH_Input (referred from .\objects\uip_ctask.o).&lt;br&gt;&lt;/font&gt;&lt;font color=&quot;#ff6666&quot;&gt;DM_ETH_ToGet_InterruptEvent (referred from .\objects\uip_ctask.o).&lt;br&gt;&lt;/font&gt;&lt;font color=&quot;#ff6666&quot;&gt;DM_ETH_Output (referred from .\objects\uip_ctask.o).&lt;/font&gt;&lt;/font&gt;&lt;/pre&gt;&lt;pre style=&quot;margin-top: 0px;&quot;&gt;&lt;font face=&quot;MyZD31g9KZF0GhwwbWez&quot;&gt;&lt;font color=&quot;#ff6666&quot;&gt;&lt;span style=&quot;font-size: 24px;&quot;&gt;DM_ETH_ToCalc_rx_pointers (referred from .\objects\uip_ctask.o).&lt;/span&gt;&lt;/font&gt;&lt;/font&gt;&lt;/pre&gt;&lt;pre style=&quot;margin-top: 0px;&quot;&gt;&lt;font face=&quot;MyZD31g9KZF0GhwwbWez&quot;&gt;&lt;font color=&quot;#ff6666&quot;&gt;&lt;span style=&quot;font-size: 24px;&quot;&gt;void DM_ETH_InterruptHdlr(void) //internal-call&lt;br&gt;&lt;/span&gt;&lt;/font&gt;&lt;/font&gt;&lt;/pre&gt;&lt;pre style=&quot;margin-top: 0px;&quot;&gt;&lt;font face=&quot;MyZD31g9KZF0GhwwbWez&quot;&gt;&lt;font color=&quot;#ff6666&quot;&gt;&lt;span style=&quot;font-size: 24px;&quot;&gt;&lt;br&gt;&lt;/span&gt;&lt;/font&gt;&lt;/font&gt;&lt;/pre&gt;&lt;pre style=&quot;margin-top: 0px;&quot;&gt;&lt;h1 style=&quot;font-family: Helvetica; white-space: normal; margin-top: 0px;&quot;&gt;&lt;font style=&quot;font-size: 36px;&quot; face=&quot;Courier New&quot; color=&quot;#006600&quot;&gt;[dm_eth_pad]&lt;/font&gt;&lt;/h1&gt;&lt;/pre&gt;&lt;pre style=&quot;margin-top: 0px;&quot;&gt;&lt;font style=&quot;font-size: 24px;&quot; face=&quot;MyZD31g9KZF0GhwwbWez&quot;&gt;&lt;font color=&quot;#ff6666&quot;&gt;dm_eth_input_hexdump (referred from .\objects\uip_ctask.o).&lt;/font&gt;&lt;/font&gt;&lt;/pre&gt;&lt;pre style=&quot;margin-top: 0px;&quot;&gt;&lt;font style=&quot;font-size: 24px;&quot; face=&quot;MyZD31g9KZF0GhwwbWez&quot;&gt;&lt;font color=&quot;#ff6666&quot;&gt;freertos_task_trylist (referred from .\objects\tasks.o).&lt;/font&gt;&lt;/font&gt;&lt;/pre&gt;&lt;pre style=&quot;margin-top: 0px;&quot;&gt;&lt;font style=&quot;font-size: 24px;&quot; face=&quot;MyZD31g9KZF0GhwwbWez&quot;&gt;&lt;font color=&quot;#ff6666&quot;&gt;&lt;br&gt;&lt;/font&gt;&lt;/font&gt;&lt;/pre&gt;&lt;pre style=&quot;margin-top: 0px;&quot;&gt;&lt;h1 style=&quot;font-family: Helvetica; white-space: normal; margin-top: 0px;&quot;&gt;&lt;font style=&quot;font-size: 36px;&quot; face=&quot;Courier New&quot; color=&quot;#006600&quot;&gt;[dm9051_u]&lt;/font&gt;&lt;/h1&gt;&lt;div&gt;&lt;pre style=&quot;margin-top: 0px;&quot;&gt;&lt;font face=&quot;MyZD31g9KZF0GhwwbWez&quot;&gt;&lt;font color=&quot;#ff6666&quot;&gt;&lt;span style=&quot;font-size: 24px;&quot;&gt;//internal-call&lt;/span&gt;&lt;/font&gt;&lt;/font&gt;&lt;/pre&gt;&lt;pre style=&quot;margin-top: 0px;&quot;&gt;&lt;h1 style=&quot;font-family: Helvetica; white-space: normal; margin-top: 0px;&quot;&gt;&lt;font style=&quot;font-size: 36px;&quot; face=&quot;Courier New&quot; color=&quot;#006600&quot;&gt;[dm9051_env]&lt;/font&gt;&lt;/h1&gt;&lt;div&gt;&lt;pre style=&quot;margin-top: 0px;&quot;&gt;&lt;font style=&quot;font-size: 24px;&quot; face=&quot;MyZD31g9KZF0GhwwbWez&quot;&gt;&lt;font color=&quot;#ff6666&quot;&gt;identify_tcpip_gw (referred from .\objects\uip_ctask.o).&lt;br&gt;&lt;/font&gt;&lt;font color=&quot;#ff6666&quot;&gt;identify_tcpip_ip (referred from .\objects\uip_ctask.o).&lt;br&gt;&lt;/font&gt;&lt;font color=&quot;#ff6666&quot;&gt;identify_tcpip_mask (referred from .\objects\uip_ctask.o).&lt;/font&gt;&lt;/font&gt;&lt;/pre&gt;&lt;pre style=&quot;margin-top: 0px;&quot;&gt;&lt;font style=&quot;font-size: 24px;&quot; face=&quot;MyZD31g9KZF0GhwwbWez&quot;&gt;&lt;font color=&quot;#ff6666&quot;&gt;&lt;br&gt;&lt;/font&gt;&lt;/font&gt;&lt;/pre&gt;&lt;/div&gt;&lt;div&gt;&lt;h1 style=&quot;font-family: Helvetica; white-space: normal; margin-top: 0px;&quot;&gt;&lt;font style=&quot;font-size: 36px;&quot; face=&quot;Courier New&quot; color=&quot;#006600&quot;&gt;[dm9051_cspi]&lt;/font&gt;&lt;/h1&gt;&lt;/div&gt;&lt;div&gt;&lt;pre style=&quot;margin-top: 0px;&quot;&gt;&lt;font style=&quot;font-size: 24px;&quot; face=&quot;MyZD31g9KZF0GhwwbWez&quot;&gt;&lt;font color=&quot;#ff6666&quot;&gt;cspi_isr_enab (referred from .\objects\uip_ctask.o).&lt;/font&gt;&lt;/font&gt;&lt;/pre&gt;&lt;/div&gt;&lt;div&gt;&lt;h1 style=&quot;font-family: Helvetica; white-space: normal; margin-top: 0px;&quot;&gt;&lt;font style=&quot;font-size: 36px;&quot; face=&quot;Courier New&quot; color=&quot;#006600&quot;&gt;[dm9051_cboard_impl_CONFIG]&lt;/font&gt;&lt;/h1&gt;&lt;/div&gt;&lt;/pre&gt;&lt;/div&gt;&lt;/pre&gt;&lt;/div&gt;&lt;pre style=&quot;margin-top: 0px;&quot;&gt;&lt;font face=&quot;MyZD31g9KZF0GhwwbWez&quot; style=&quot;font-size: 24px;&quot;&gt;&lt;span style=&quot;background-color: initial; font-weight: 400;&quot;&gt;&lt;font style=&quot;&quot; color=&quot;#ff6666&quot;&gt;cint_exint9_5_handler (referred from .\objects\at32f435_437_int.o).&lt;br&gt;&lt;/font&gt;&lt;/span&gt;&lt;font style=&quot;&quot; color=&quot;#ff6666&quot;&gt;&lt;span style=&quot;font-weight: 400;&quot;&gt;&lt;br&gt;&lt;/span&gt;&lt;/font&gt;&lt;font style=&quot;&quot; color=&quot;#ff6666&quot;&gt;&lt;span style=&quot;font-weight: 400;&quot;&gt;&lt;br&gt;&lt;/span&gt;&lt;/font&gt;&lt;span style=&quot;font-weight: 400; color: rgb(255, 102, 102); background-color: initial;&quot;&gt;&lt;br&gt;&lt;/span&gt;&lt;font style=&quot;&quot; color=&quot;#ff6666&quot;&gt;&lt;span style=&quot;font-weight: 400;&quot;&gt;&lt;br&gt;&lt;/span&gt;&lt;/font&gt;&lt;font style=&quot;&quot; color=&quot;#ff6666&quot;&gt;&lt;span style=&quot;font-weight: 400;&quot;&gt;&lt;br&gt;&lt;/span&gt;&lt;/font&gt;&lt;br&gt;&lt;/font&gt;&lt;/pre&gt;&lt;pre style=&quot;margin-top: 0px;&quot;&gt;&lt;font face=&quot;MyZD31g9KZF0GhwwbWez&quot; style=&quot;&quot;&gt;&lt;font style=&quot;&quot; color=&quot;#ff6666&quot;&gt;&lt;span style=&quot;font-size: 24px;&quot;&gt;&lt;br&gt;&lt;/span&gt;&lt;/font&gt;&lt;/font&gt;&lt;/pre&gt;" style="text;html=1;whiteSpace=wrap;overflow=hidden;rounded=0;" parent="1" vertex="1">
          <mxGeometry x="-1140" y="-1570" width="2250" height="1310" as="geometry" />
        </mxCell>
      </root>
    </mxGraphModel>
  </diagram>
</mxfile>
